<mxfile host="65bd71144e">
    <diagram id="TVAN1RsCujCGbqIX8O2h" name="Page-1">
        <mxGraphModel dx="998" dy="779" grid="1" gridSize="10" guides="1" tooltips="1" connect="1" arrows="1" fold="1" page="1" pageScale="1" pageWidth="827" pageHeight="1169" math="0" shadow="0">
            <root>
                <mxCell id="0"/>
                <mxCell id="1" parent="0"/>
                <mxCell id="iZQYFHLlT02GK9p6kuBg-9" style="edgeStyle=orthogonalEdgeStyle;orthogonalLoop=1;jettySize=auto;html=1;exitX=1;exitY=0.5;exitDx=0;exitDy=0;strokeColor=#006658;fontColor=#5C5C5C;strokeWidth=2;startArrow=classic;startFill=1;" parent="1" source="iZQYFHLlT02GK9p6kuBg-2" edge="1">
                    <mxGeometry relative="1" as="geometry">
                        <mxPoint x="680" y="265" as="targetPoint"/>
                    </mxGeometry>
                </mxCell>
                <mxCell id="iZQYFHLlT02GK9p6kuBg-2" value="" style="whiteSpace=wrap;html=1;fillColor=#21C0A5;strokeColor=#006658;fontColor=#5C5C5C;rounded=1;" parent="1" vertex="1">
                    <mxGeometry x="290" y="220" width="320" height="90" as="geometry"/>
                </mxCell>
                <mxCell id="iZQYFHLlT02GK9p6kuBg-3" value="" style="endArrow=classic;html=1;strokeColor=#006658;fontColor=#5C5C5C;strokeWidth=2;" parent="1" edge="1">
                    <mxGeometry width="50" height="50" relative="1" as="geometry">
                        <mxPoint x="143" y="459.66" as="sourcePoint"/>
                        <mxPoint x="290" y="459.66" as="targetPoint"/>
                    </mxGeometry>
                </mxCell>
                <mxCell id="iZQYFHLlT02GK9p6kuBg-4" value="&lt;font style=&quot;font-size: 32px&quot;&gt;MQTT&lt;/font&gt;" style="text;html=1;resizable=0;autosize=1;align=center;verticalAlign=middle;points=[];fillColor=none;strokeColor=none;fontColor=#5C5C5C;rounded=1;" parent="1" vertex="1">
                    <mxGeometry x="180" y="180" width="110" height="30" as="geometry"/>
                </mxCell>
                <mxCell id="iZQYFHLlT02GK9p6kuBg-11" value="&lt;div style=&quot;font-size: 16px&quot;&gt;&lt;/div&gt;&lt;font color=&quot;#000000&quot;&gt;&lt;span style=&quot;font-size: 16px&quot;&gt;{&quot;&lt;/span&gt;&lt;b style=&quot;font-size: 16px&quot;&gt;datetime&lt;/b&gt;&lt;span style=&quot;font-size: 16px&quot;&gt;&quot;:&quot;2021-01-23 13:00:00&quot;,&lt;/span&gt;&lt;br&gt;&lt;/font&gt;&lt;span style=&quot;color: rgb(0 , 0 , 0) ; font-size: 16px&quot;&gt;&amp;nbsp;&quot;&lt;/span&gt;&lt;b style=&quot;color: rgb(0 , 0 , 0) ; font-size: 16px&quot;&gt;id&lt;/b&gt;&lt;span style=&quot;color: rgb(0 , 0 , 0) ; font-size: 16px&quot;&gt;&quot;:&quot;{GUID}&lt;/span&gt;&lt;span style=&quot;color: rgb(0 , 0 , 0) ; font-size: 16px&quot;&gt;&quot;,&lt;/span&gt;&lt;span style=&quot;color: rgb(0 , 0 , 0) ; font-size: 16px&quot;&gt;&lt;br&gt;&amp;nbsp;&quot;&lt;/span&gt;&lt;b style=&quot;color: rgb(0 , 0 , 0) ; font-size: 16px&quot;&gt;type&lt;/b&gt;&lt;span style=&quot;color: rgb(0 , 0 , 0) ; font-size: 16px&quot;&gt;&quot;:&quot;MOWER&quot;,&lt;/span&gt;&lt;font color=&quot;#000000&quot;&gt;&lt;span style=&quot;font-size: 16px&quot;&gt;&lt;br&gt;&lt;/span&gt;&amp;nbsp;&lt;/font&gt;&lt;span style=&quot;color: rgb(0 , 0 , 0) ; font-size: 16px&quot;&gt;&quot;&lt;/span&gt;&lt;b style=&quot;color: rgb(0 , 0 , 0) ; font-size: 16px&quot;&gt;name&lt;/b&gt;&lt;span style=&quot;color: rgb(0 , 0 , 0) ; font-size: 16px&quot;&gt;&quot;:&quot;MySileno&lt;/span&gt;&lt;span style=&quot;color: rgb(0 , 0 , 0) ; font-size: 16px&quot;&gt;&quot;, ...&lt;/span&gt;&lt;font color=&quot;#000000&quot;&gt;&lt;br&gt;&lt;/font&gt;&lt;div style=&quot;font-size: 16px&quot;&gt;&lt;font style=&quot;font-size: 16px&quot; color=&quot;#000000&quot;&gt;&amp;nbsp;...}&lt;/font&gt;&lt;/div&gt;&lt;span style=&quot;font-size: 16px&quot;&gt;&lt;br&gt;&lt;/span&gt;" style="text;html=1;resizable=0;autosize=1;align=left;verticalAlign=middle;points=[];fillColor=none;strokeColor=none;fontColor=#5C5C5C;rounded=1;" parent="1" vertex="1">
                    <mxGeometry x="30" y="286" width="270" height="90" as="geometry"/>
                </mxCell>
                <mxCell id="iZQYFHLlT02GK9p6kuBg-12" value="" style="endArrow=classic;html=1;strokeColor=#006658;fontColor=#5C5C5C;strokeWidth=2;" parent="1" edge="1">
                    <mxGeometry width="50" height="50" relative="1" as="geometry">
                        <mxPoint x="290" y="264.65999999999997" as="sourcePoint"/>
                        <mxPoint x="142" y="264.65999999999997" as="targetPoint"/>
                    </mxGeometry>
                </mxCell>
                <mxCell id="iZQYFHLlT02GK9p6kuBg-13" style="edgeStyle=orthogonalEdgeStyle;orthogonalLoop=1;jettySize=auto;html=1;exitX=1;exitY=0.5;exitDx=0;exitDy=0;startArrow=classic;startFill=1;endArrow=classic;endFill=1;strokeColor=#006658;fontColor=#5C5C5C;strokeWidth=2;" parent="1" source="iZQYFHLlT02GK9p6kuBg-14" edge="1">
                    <mxGeometry relative="1" as="geometry">
                        <mxPoint x="680" y="469" as="targetPoint"/>
                    </mxGeometry>
                </mxCell>
                <mxCell id="iZQYFHLlT02GK9p6kuBg-14" value="" style="whiteSpace=wrap;html=1;fillColor=#21C0A5;strokeColor=#006658;fontColor=#5C5C5C;rounded=1;" parent="1" vertex="1">
                    <mxGeometry x="290" y="414" width="320" height="110" as="geometry"/>
                </mxCell>
                <mxCell id="iZQYFHLlT02GK9p6kuBg-18" value="&lt;div style=&quot;font-size: 16px&quot;&gt;&lt;/div&gt;&lt;font style=&quot;font-size: 16px&quot; color=&quot;#000000&quot;&gt;{&lt;/font&gt;&lt;span style=&quot;color: rgb(0 , 0 , 0) ; font-size: 16px&quot;&gt;&quot;&lt;/span&gt;&lt;b style=&quot;color: rgb(0 , 0 , 0) ; font-size: 16px&quot;&gt;result&lt;/b&gt;&lt;span style=&quot;color: rgb(0 , 0 , 0) ; font-size: 16px&quot;&gt;&quot;:&quot;success&quot;,&lt;/span&gt;&lt;font style=&quot;font-size: 16px&quot; color=&quot;#000000&quot;&gt;&lt;br&gt;&lt;/font&gt;&lt;span style=&quot;color: rgb(0 , 0 , 0) ; font-size: 16px&quot;&gt;&quot;&lt;/span&gt;&lt;b style=&quot;color: rgb(0 , 0 , 0) ; font-size: 16px&quot;&gt;datetime&lt;/b&gt;&lt;span style=&quot;color: rgb(0 , 0 , 0) ; font-size: 16px&quot;&gt;&quot;:&quot;2021-01-23 13:00:00&quot;,&lt;/span&gt;&lt;font style=&quot;font-size: 16px&quot; color=&quot;#000000&quot;&gt;&lt;br&gt;&lt;/font&gt;&lt;div style=&quot;font-size: 16px&quot;&gt;&lt;font style=&quot;font-size: 16px&quot; color=&quot;#000000&quot;&gt;&amp;nbsp;&quot;&lt;b&gt;request&lt;/b&gt;&quot;:{JSON passed to /control}}&lt;/font&gt;&lt;/div&gt;" style="text;html=1;resizable=0;autosize=1;align=left;verticalAlign=middle;points=[];fillColor=none;strokeColor=none;fontColor=#5C5C5C;rounded=1;" parent="1" vertex="1">
                    <mxGeometry x="40" y="490" width="280" height="50" as="geometry"/>
                </mxCell>
                <mxCell id="iZQYFHLlT02GK9p6kuBg-19" value="" style="endArrow=classic;html=1;strokeColor=#006658;fontColor=#5C5C5C;strokeWidth=2;" parent="1" edge="1">
                    <mxGeometry width="50" height="50" relative="1" as="geometry">
                        <mxPoint x="290" y="479.66" as="sourcePoint"/>
                        <mxPoint x="135" y="479.66" as="targetPoint"/>
                    </mxGeometry>
                </mxCell>
                <mxCell id="0WyOtpwQdWUZ3Yu5Fqzz-1" value="&lt;b&gt;&lt;font style=&quot;font-size: 16px&quot;&gt;gardena2mqtt/{device}&lt;/font&gt;&lt;/b&gt;" style="text;html=1;resizable=0;autosize=1;align=left;verticalAlign=middle;points=[];fillColor=none;strokeColor=none;rounded=0;" parent="1" vertex="1">
                    <mxGeometry x="300" y="250" width="200" height="30" as="geometry"/>
                </mxCell>
                <mxCell id="0WyOtpwQdWUZ3Yu5Fqzz-3" value="&lt;b&gt;&lt;font style=&quot;font-size: 16px&quot;&gt;gardena2mqtt/{device}/control&lt;/font&gt;&lt;/b&gt;" style="text;html=1;resizable=0;autosize=1;align=left;verticalAlign=middle;points=[];fillColor=none;strokeColor=none;rounded=0;" parent="1" vertex="1">
                    <mxGeometry x="300" y="445" width="250" height="30" as="geometry"/>
                </mxCell>
                <mxCell id="0WyOtpwQdWUZ3Yu5Fqzz-4" value="&lt;span style=&quot;color: rgb(92 , 92 , 92) ; font-size: 23px&quot;&gt;gardena2mqtt&lt;/span&gt;" style="text;html=1;resizable=0;autosize=1;align=center;verticalAlign=middle;points=[];fillColor=none;strokeColor=none;rounded=0;" parent="1" vertex="1">
                    <mxGeometry x="356" y="200" width="160" height="20" as="geometry"/>
                </mxCell>
                <mxCell id="0WyOtpwQdWUZ3Yu5Fqzz-5" value="&lt;span style=&quot;color: rgb(92 , 92 , 92) ; font-size: 23px&quot;&gt;gardena2mqtt&lt;/span&gt;" style="text;html=1;resizable=0;autosize=1;align=center;verticalAlign=middle;points=[];fillColor=none;strokeColor=none;rounded=0;" parent="1" vertex="1">
                    <mxGeometry x="359" y="394" width="160" height="20" as="geometry"/>
                </mxCell>
                <mxCell id="Is5n2BFewg45JLDfxjkh-1" value="&lt;b&gt;&lt;font style=&quot;font-size: 16px&quot;&gt;gardena2mqtt/{device}/result&lt;/font&gt;&lt;/b&gt;" style="text;html=1;resizable=0;autosize=1;align=left;verticalAlign=middle;points=[];fillColor=none;strokeColor=none;rounded=0;" parent="1" vertex="1">
                    <mxGeometry x="300" y="465" width="240" height="30" as="geometry"/>
                </mxCell>
                <mxCell id="Is5n2BFewg45JLDfxjkh-2" value="&lt;div style=&quot;font-size: 16px&quot;&gt;&lt;/div&gt;&lt;font style=&quot;font-size: 16px&quot; color=&quot;#000000&quot;&gt;{&lt;/font&gt;&lt;font color=&quot;#000000&quot;&gt;&lt;span style=&quot;font-size: 16px&quot;&gt;&quot;&lt;/span&gt;&lt;b style=&quot;font-size: 16px&quot;&gt;command&lt;/b&gt;&lt;span style=&quot;font-size: 16px&quot;&gt;&quot;:&quot;start_dont_override&quot;,&lt;br&gt;&lt;/span&gt;&lt;/font&gt;&lt;span style=&quot;color: rgb(0 , 0 , 0) ; font-size: 16px&quot;&gt;&quot;&lt;/span&gt;&lt;b style=&quot;color: rgb(0 , 0 , 0) ; font-size: 16px&quot;&gt;duration&lt;/b&gt;&lt;span style=&quot;color: rgb(0 , 0 , 0) ; font-size: 16px&quot;&gt;&quot;:3600&lt;/span&gt;&lt;span style=&quot;font-size: 16px ; color: rgb(0 , 0 , 0)&quot;&gt;}&lt;/span&gt;&lt;font style=&quot;font-size: 16px&quot; color=&quot;#000000&quot;&gt;&lt;br&gt;&lt;/font&gt;" style="text;html=1;resizable=0;autosize=1;align=left;verticalAlign=middle;points=[];fillColor=none;strokeColor=none;fontColor=#5C5C5C;rounded=1;" parent="1" vertex="1">
                    <mxGeometry x="30" y="410" width="270" height="40" as="geometry"/>
                </mxCell>
                <mxCell id="Is5n2BFewg45JLDfxjkh-3" value="Gardena cloud" style="ellipse;shape=cloud;whiteSpace=wrap;html=1;" parent="1" vertex="1">
                    <mxGeometry x="680" y="225" width="120" height="80" as="geometry"/>
                </mxCell>
                <mxCell id="Is5n2BFewg45JLDfxjkh-4" value="Gardena cloud" style="ellipse;shape=cloud;whiteSpace=wrap;html=1;" parent="1" vertex="1">
                    <mxGeometry x="680" y="429" width="120" height="80" as="geometry"/>
                </mxCell>
            </root>
        </mxGraphModel>
    </diagram>
</mxfile>